{
    "asset" : {
        "generator" : "Khronos glTF Blender I/O v1.6.16",
        "version" : "2.0"
    },
    "scene" : 0,
    "scenes" : [
        {
            "name" : "Scene",
            "nodes" : [
                0,
                1,
                2,
                3
            ]
        }
    ],
    "nodes" : [
        {
            "mesh" : 0,
            "name" : "head",
            "scale" : [
                1.0499999523162842,
                1.0499999523162842,
                1.0499999523162842
            ],
            "translation" : [
                0,
                -5.078000068664551,
                0.5
            ]
        },
        {
            "mesh" : 1,
            "name" : "rightarm",
            "scale" : [
                1,
                2,
                1
            ],
            "translation" : [
                0,
                0,
                -1.2612901628017426e-05
            ]
        },
        {
            "mesh" : 2,
            "name" : "leftarm",
            "scale" : [
                1,
                2,
                1
            ]
        },
        {
            "mesh" : 3,
            "name" : "body",
            "scale" : [
                1,
                2,
                1
            ]
        }
    ],
    "animations" : [
        {
            "channels" : [
                {
                    "sampler" : 0,
                    "target" : {
                        "node" : 0,
                        "path" : "translation"
                    }
                }
            ],
            "name" : "ImageToStl.com headAction",
            "samplers" : [
                {
                    "input" : 13,
                    "interpolation" : "LINEAR",
                    "output" : 14
                }
            ]
        }
    ],
    "meshes" : [
        {
            "name" : "ImageToStl.com face.001",
            "primitives" : [
                {
                    "attributes" : {
                        "POSITION" : 0,
                        "NORMAL" : 1,
                        "COLOR_0" : 2
                    },
                    "indices" : 3
                }
            ]
        },
        {
            "name" : "ImageToStl.com right arm",
            "primitives" : [
                {
                    "attributes" : {
                        "POSITION" : 4,
                        "NORMAL" : 5
                    },
                    "indices" : 6
                }
            ]
        },
        {
            "name" : "ImageToStl.com left arm",
            "primitives" : [
                {
                    "attributes" : {
                        "POSITION" : 7,
                        "NORMAL" : 8
                    },
                    "indices" : 9
                }
            ]
        },
        {
            "name" : "ImageToStl.com body",
            "primitives" : [
                {
                    "attributes" : {
                        "POSITION" : 10,
                        "NORMAL" : 11
                    },
                    "indices" : 12
                }
            ]
        }
    ],
    "accessors" : [
        {
            "bufferView" : 0,
            "componentType" : 5126,
            "count" : 20193,
            "max" : [
                35.0643310546875,
                0.929411768913269,
                3.7815351486206055
            ],
            "min" : [
                -32.0279541015625,
                -4.687618732452393,
                -35.276485443115234
            ],
            "type" : "VEC3"
        },
        {
            "bufferView" : 1,
            "componentType" : 5126,
            "count" : 20193,
            "type" : "VEC3"
        },
        {
            "bufferView" : 2,
            "componentType" : 5123,
            "count" : 20193,
            "normalized" : true,
            "type" : "VEC4"
        },
        {
            "bufferView" : 3,
            "componentType" : 5123,
            "count" : 24540,
            "type" : "SCALAR"
        },
        {
            "bufferView" : 4,
            "componentType" : 5126,
            "count" : 2035,
            "max" : [
                -12.457870483398438,
                -2.058823585510254,
                29.001781463623047
            ],
            "min" : [
                -23.702260971069336,
                -5,
                11.39322280883789
            ],
            "type" : "VEC3"
        },
        {
            "bufferView" : 5,
            "componentType" : 5126,
            "count" : 2035,
            "type" : "VEC3"
        },
        {
            "bufferView" : 6,
            "componentType" : 5123,
            "count" : 2592,
            "type" : "SCALAR"
        },
        {
            "bufferView" : 7,
            "componentType" : 5126,
            "count" : 2076,
            "max" : [
                26.233497619628906,
                -2.058823585510254,
                28.89483070373535
            ],
            "min" : [
                14.970420837402344,
                -5,
                10.789592742919922
            ],
            "type" : "VEC3"
        },
        {
            "bufferView" : 8,
            "componentType" : 5126,
            "count" : 2076,
            "type" : "VEC3"
        },
        {
            "bufferView" : 9,
            "componentType" : 5123,
            "count" : 2640,
            "type" : "SCALAR"
        },
        {
            "bufferView" : 10,
            "componentType" : 5126,
            "count" : 4480,
            "max" : [
                17.954360961914062,
                -2.058823585510254,
                36.99827575683594
            ],
            "min" : [
                -15.874767303466797,
                -5,
                7.950496673583984
            ],
            "type" : "VEC3"
        },
        {
            "bufferView" : 11,
            "componentType" : 5126,
            "count" : 4480,
            "type" : "VEC3"
        },
        {
            "bufferView" : 12,
            "componentType" : 5123,
            "count" : 5736,
            "type" : "SCALAR"
        },
        {
            "bufferView" : 13,
            "componentType" : 5126,
            "count" : 121,
            "max" : [
                2
            ],
            "min" : [
                0
            ],
            "type" : "SCALAR"
        },
        {
            "bufferView" : 14,
            "componentType" : 5126,
            "count" : 121,
            "type" : "VEC3"
        }
    ],
    "bufferViews" : [
        {
            "buffer" : 0,
            "byteLength" : 242316,
            "byteOffset" : 0
        },
        {
            "buffer" : 0,
            "byteLength" : 242316,
            "byteOffset" : 242316
        },
        {
            "buffer" : 0,
            "byteLength" : 161544,
            "byteOffset" : 484632
        },
        {
            "buffer" : 0,
            "byteLength" : 49080,
            "byteOffset" : 646176
        },
        {
            "buffer" : 0,
            "byteLength" : 24420,
            "byteOffset" : 695256
        },
        {
            "buffer" : 0,
            "byteLength" : 24420,
            "byteOffset" : 719676
        },
        {
            "buffer" : 0,
            "byteLength" : 5184,
            "byteOffset" : 744096
        },
        {
            "buffer" : 0,
            "byteLength" : 24912,
            "byteOffset" : 749280
        },
        {
            "buffer" : 0,
            "byteLength" : 24912,
            "byteOffset" : 774192
        },
        {
            "buffer" : 0,
            "byteLength" : 5280,
            "byteOffset" : 799104
        },
        {
            "buffer" : 0,
            "byteLength" : 53760,
            "byteOffset" : 804384
        },
        {
            "buffer" : 0,
            "byteLength" : 53760,
            "byteOffset" : 858144
        },
        {
            "buffer" : 0,
            "byteLength" : 11472,
            "byteOffset" : 911904
        },
        {
            "buffer" : 0,
            "byteLength" : 484,
            "byteOffset" : 923376
        },
        {
            "buffer" : 0,
            "byteLength" : 1452,
            "byteOffset" : 923860
        }
    ],
    "buffers" : [
        {
            "byteLength" : 925312,
            "uri" : "data:application/octet-stream;base64,"
        }
    ]
}
